# xmcd CD database file
#
# Track frame offsets:
#	150
#	27177
#	59605
#	79582
#	103310
#	129360
#	147065
#	171095
#	196587
#	220050
#	244852
#	267850
#
# Disc length: 3759 seconds
#
# Revision: 0
# Processed by: cddbd v1.5PL3 Copyright (c) Steve Scherf et al.
# Submitted via: CDex 1.50beta10
#
DISCID=a20ead0c
DTITLE=染谷俊 - 僕のたくらみ
DYEAR=1994
DGENRE=Rock
TTITLE0=僕のたくらみ
TTITLE1=ウォールタイム - NEW VOCAL VERSION -
TTITLE2=同じ空をみてた
TTITLE3=きっと天使になれる
TTITLE4=あれが最後だと思わなかった
TTITLE5=君は僕の太陽だ
TTITLE6=危険に自由を犯せばいい - NEW VOCAL VERSION -
TTITLE7=太陽の季節
TTITLE8=落書
TTITLE9=夏色の影
TTITLE10=PURE - 現実に殺されないで -
TTITLE11=雑踏で想うこと
EXTD=YEAR: 1994
EXTT0=
EXTT1=
EXTT2=
EXTT3=
EXTT4=
EXTT5=
EXTT6=
EXTT7=
EXTT8=
EXTT9=
EXTT10=
EXTT11=
PLAYORDER=
